<svg width="34" height="33" viewBox="0 0 34 33" fill="none" xmlns="http://www.w3.org/2000/svg">
<g id="Icon/Outline/bookmark">
<g id="Icon">
<path d="M7.08325 6.875C7.08325 5.35622 8.35178 4.125 9.91659 4.125H24.0833C25.6481 4.125 26.9166 5.35622 26.9166 6.875V28.875L16.9999 24.0625L7.08325 28.875V6.875Z" fill="#FFCC00"/>
<path d="M7.08325 6.875C7.08325 5.35622 8.35178 4.125 9.91659 4.125H24.0833C25.6481 4.125 26.9166 5.35622 26.9166 6.875V28.875L16.9999 24.0625L7.08325 28.875V6.875Z" stroke="#0C0C0C" stroke-width="2" stroke-linecap="round" stroke-linejoin="round"/>
<path d="M7.08325 6.875C7.08325 5.35622 8.35178 4.125 9.91659 4.125H24.0833C25.6481 4.125 26.9166 5.35622 26.9166 6.875V28.875L16.9999 24.0625L7.08325 28.875V6.875Z" stroke="black" stroke-opacity="0.2" stroke-width="2" stroke-linecap="round" stroke-linejoin="round"/>
<path d="M7.08325 6.875C7.08325 5.35622 8.35178 4.125 9.91659 4.125H24.0833C25.6481 4.125 26.9166 5.35622 26.9166 6.875V28.875L16.9999 24.0625L7.08325 28.875V6.875Z" stroke="black" stroke-opacity="0.2" stroke-width="2" stroke-linecap="round" stroke-linejoin="round"/>
<path d="M7.08325 6.875C7.08325 5.35622 8.35178 4.125 9.91659 4.125H24.0833C25.6481 4.125 26.9166 5.35622 26.9166 6.875V28.875L16.9999 24.0625L7.08325 28.875V6.875Z" stroke="black" stroke-opacity="0.2" stroke-width="2" stroke-linecap="round" stroke-linejoin="round"/>
<path d="M7.08325 6.875C7.08325 5.35622 8.35178 4.125 9.91659 4.125H24.0833C25.6481 4.125 26.9166 5.35622 26.9166 6.875V28.875L16.9999 24.0625L7.08325 28.875V6.875Z" stroke="black" stroke-opacity="0.2" stroke-width="2" stroke-linecap="round" stroke-linejoin="round"/>
</g>
</g>
</svg>
