<svg width="34" height="33" viewBox="0 0 34 33" fill="none" xmlns="http://www.w3.org/2000/svg">
<g id="Icon/Outline/document-text">
<g id="Icon">
<path d="M9.91683 28.875H24.0835C25.6483 28.875 26.9168 27.6438 26.9168 26.125V12.9445C26.9168 12.5799 26.7676 12.2301 26.5019 11.9723L18.8318 4.52773C18.5661 4.26987 18.2058 4.125 17.83 4.125H9.91683C8.35202 4.125 7.0835 5.35622 7.0835 6.875V26.125C7.0835 27.6438 8.35202 28.875 9.91683 28.875Z" fill="#ED0707"/>
<path d="M12.7502 16.5H21.2502M12.7502 22H21.2502M24.0835 28.875H9.91683C8.35202 28.875 7.0835 27.6438 7.0835 26.125V6.875C7.0835 5.35622 8.35202 4.125 9.91683 4.125H17.83C18.2058 4.125 18.5661 4.26987 18.8318 4.52773L26.5019 11.9723C26.7676 12.2301 26.9168 12.5799 26.9168 12.9445V26.125C26.9168 27.6438 25.6483 28.875 24.0835 28.875Z" stroke="#0C0C0C" stroke-width="2" stroke-linecap="round" stroke-linejoin="round"/>
<path d="M12.7502 16.5H21.2502M12.7502 22H21.2502M24.0835 28.875H9.91683C8.35202 28.875 7.0835 27.6438 7.0835 26.125V6.875C7.0835 5.35622 8.35202 4.125 9.91683 4.125H17.83C18.2058 4.125 18.5661 4.26987 18.8318 4.52773L26.5019 11.9723C26.7676 12.2301 26.9168 12.5799 26.9168 12.9445V26.125C26.9168 27.6438 25.6483 28.875 24.0835 28.875Z" stroke="black" stroke-opacity="0.2" stroke-width="2" stroke-linecap="round" stroke-linejoin="round"/>
<path d="M12.7502 16.5H21.2502M12.7502 22H21.2502M24.0835 28.875H9.91683C8.35202 28.875 7.0835 27.6438 7.0835 26.125V6.875C7.0835 5.35622 8.35202 4.125 9.91683 4.125H17.83C18.2058 4.125 18.5661 4.26987 18.8318 4.52773L26.5019 11.9723C26.7676 12.2301 26.9168 12.5799 26.9168 12.9445V26.125C26.9168 27.6438 25.6483 28.875 24.0835 28.875Z" stroke="black" stroke-opacity="0.2" stroke-width="2" stroke-linecap="round" stroke-linejoin="round"/>
<path d="M12.7502 16.5H21.2502M12.7502 22H21.2502M24.0835 28.875H9.91683C8.35202 28.875 7.0835 27.6438 7.0835 26.125V6.875C7.0835 5.35622 8.35202 4.125 9.91683 4.125H17.83C18.2058 4.125 18.5661 4.26987 18.8318 4.52773L26.5019 11.9723C26.7676 12.2301 26.9168 12.5799 26.9168 12.9445V26.125C26.9168 27.6438 25.6483 28.875 24.0835 28.875Z" stroke="black" stroke-opacity="0.2" stroke-width="2" stroke-linecap="round" stroke-linejoin="round"/>
<path d="M12.7502 16.5H21.2502M12.7502 22H21.2502M24.0835 28.875H9.91683C8.35202 28.875 7.0835 27.6438 7.0835 26.125V6.875C7.0835 5.35622 8.35202 4.125 9.91683 4.125H17.83C18.2058 4.125 18.5661 4.26987 18.8318 4.52773L26.5019 11.9723C26.7676 12.2301 26.9168 12.5799 26.9168 12.9445V26.125C26.9168 27.6438 25.6483 28.875 24.0835 28.875Z" stroke="black" stroke-opacity="0.2" stroke-width="2" stroke-linecap="round" stroke-linejoin="round"/>
</g>
</g>
</svg>
