<svg width="30" height="31" viewBox="0 0 30 31" fill="none" xmlns="http://www.w3.org/2000/svg">
<g id="Exit" clip-path="url(#clip0_1182_9886)">
<rect id="Rectangle 5492" y="0.5" width="30" height="30" rx="5" fill="#FFCC00"/>
<path id="Vector" d="M20.8918 8.80181C20.7993 8.7091 20.6894 8.63556 20.5684 8.58537C20.4474 8.53519 20.3177 8.50936 20.1868 8.50936C20.0558 8.50936 19.9261 8.53519 19.8052 8.58537C19.6842 8.63556 19.5743 8.7091 19.4818 8.80181L14.5918 13.6818L9.70178 8.79181C9.60919 8.69922 9.49928 8.62578 9.37832 8.57568C9.25736 8.52557 9.12771 8.49979 8.99678 8.49979C8.86585 8.49979 8.7362 8.52557 8.61523 8.57568C8.49427 8.62578 8.38436 8.69922 8.29178 8.79181C8.19919 8.88439 8.12575 8.9943 8.07565 9.11526C8.02554 9.23623 7.99976 9.36588 7.99976 9.49681C7.99976 9.62774 8.02554 9.75739 8.07565 9.87835C8.12575 9.99931 8.19919 10.1092 8.29178 10.2018L13.1818 15.0918L8.29178 19.9818C8.19919 20.0744 8.12575 20.1843 8.07565 20.3053C8.02554 20.4262 7.99976 20.5559 7.99976 20.6868C7.99976 20.8177 8.02554 20.9474 8.07565 21.0683C8.12575 21.1893 8.19919 21.2992 8.29178 21.3918C8.38436 21.4844 8.49427 21.5578 8.61523 21.6079C8.7362 21.658 8.86585 21.6838 8.99678 21.6838C9.12771 21.6838 9.25736 21.658 9.37832 21.6079C9.49928 21.5578 9.60919 21.4844 9.70178 21.3918L14.5918 16.5018L19.4818 21.3918C19.5744 21.4844 19.6843 21.5578 19.8052 21.6079C19.9262 21.658 20.0558 21.6838 20.1868 21.6838C20.3177 21.6838 20.4474 21.658 20.5683 21.6079C20.6893 21.5578 20.7992 21.4844 20.8918 21.3918C20.9844 21.2992 21.0578 21.1893 21.1079 21.0683C21.158 20.9474 21.1838 20.8177 21.1838 20.6868C21.1838 20.5559 21.158 20.4262 21.1079 20.3053C21.0578 20.1843 20.9844 20.0744 20.8918 19.9818L16.0018 15.0918L20.8918 10.2018C21.2718 9.82181 21.2718 9.18181 20.8918 8.80181Z" fill="black"/>
</g>
<defs>
<clipPath id="clip0_1182_9886">
<rect width="30" height="30" fill="white" transform="translate(0 0.5)"/>
</clipPath>
</defs>
</svg>
